<?xml version="1.0" encoding="UTF-8"?>
<svg version="1.1" viewBox="0 0 1600 1600" width="1280" height="1280" xmlns="http://www.w3.org/2000/svg">
<path transform="translate(775)" d="m0 0c6.96-0.0253 13.9-0.0428 20.9-0.0549 2.37-0.00504 4.74-0.0119 7.11-0.0205 3.4-0.0121 6.8-0.0178 10.2-0.0222 1.07-0.00516 2.13-0.0103 3.23-0.0156 1.47-1.13e-4 1.47-1.13e-4 2.97-2.29e-4 0.868-0.00222 1.74-0.00444 2.63-0.00673 1.98 0.12 1.98 0.12 2.98 1.12 2.44 0.538 4.9 0.964 7.36 1.4 2.72 0.615 5.06 1.55 7.64 2.6 3.38 1.11 6.8 2.12 10.2 3.14 3.43 1.05 6.65 2.12 9.79 3.86 0.648 0.318 1.3 0.637 1.96 0.965 2.96 1.46 5.85 2.92 8.66 4.66 2.7 1.56 5.39 2.47 8.38 3.38v2c0.742 0.248 1.49 0.495 2.25 0.75 3.03 1.38 4.45 2.88 6.75 5.25 1.84 1.33 3.71 2.6 5.61 3.85 0.459 0.379 0.918 0.758 1.39 1.15v2c0.959 0.402 0.959 0.402 1.94 0.812 2.06 1.19 2.06 1.19 3.06 4.19 2.5 1.22 2.5 1.22 5 2v2c0.825 0.144 1.65 0.289 2.5 0.438 4.41 1.97 6.49 4.67 9.55 8.32 1.65 1.9 3.24 3.44 5.2 5 2.71 2.22 4.57 4.52 6.75 7.25 0.969 0.804 1.94 1.61 2.94 2.44 3.06 2.56 3.06 2.56 5.5 5.5 1.96 2.34 3.62 4.03 5.94 5.94 2.61 2.16 4.81 4.41 7 7 3.22 3.79 6.75 7.03 10.5 10.3 2.14 1.88 4.19 3.76 6.11 5.86v2h2v2c0.99 0.33 1.98 0.66 3 1 1.61 1.67 1.61 1.67 3.31 3.75 2.16 2.56 4.25 4.86 6.88 6.94 2.73 2.25 4.62 4.56 6.81 7.31 0.825 0.66 1.65 1.32 2.5 2 2.63 2.1 4.4 4.38 6.5 7 0.825 0.66 1.65 1.32 2.5 2 2.62 2.1 4.43 4.37 6.5 7 0.99 0.66 1.98 1.32 3 2v2c0.599 0.26 1.2 0.521 1.82 0.789 2.33 1.29 3.48 2.51 5.12 4.59 1.77 2.16 3.3 3.81 5.5 5.56 2.34 1.88 4.06 3.73 6 6 2.12 2.49 4.19 4.71 6.75 6.75 2.72 2.23 4.66 4.55 6.81 7.31 0.66 0.33 1.32 0.66 2 1v2c1.32 0.66 2.64 1.32 4 2v2h2c1.62 1.68 1.62 1.68 3.44 3.88 2.15 2.59 3.73 4.24 6.56 6.12v2h2v2h2v2h2v2l1.81 0.812c2.19 1.19 3.6 2.28 5.19 4.19v2h2c1.52 1.57 1.52 1.57 3.25 3.69 2.25 2.67 4.45 5.02 7.19 7.19 0.846 0.701 1.69 1.4 2.56 2.12v2h2c3.69 3.43 7.01 7.19 10.4 10.9 3.11 3.44 6.23 6.73 9.81 9.69 0.928 0.784 1.86 1.57 2.81 2.38v2h2c4.27 3.97 8.1 8.37 12 12.7 2.01 2.22 3.95 4.23 6.36 6.03 0.548 0.415 1.1 0.83 1.66 1.26v2c0.959 0.402 0.959 0.402 1.94 0.812 2.06 1.19 2.06 1.19 3.06 4.19h2v2h2v2c0.99 0.33 1.98 0.66 3 1 1.69 1.44 1.69 1.44 3 3v2h2c1.2 1.44 2.4 2.88 3.57 4.35 2.21 2.57 4.79 4.52 7.43 6.65 2.38 2.19 2.38 2.19 4 4v2c0.568 0.229 1.14 0.459 1.72 0.695 2.87 1.64 4.57 3.67 6.71 6.18 2.97 3.47 5.97 6.31 9.56 9.12 1.33 1.67 2.67 3.33 4 5 1.24 0.99 1.24 0.99 2.5 2 2.63 2.1 4.4 4.38 6.5 7 1.24 0.99 1.24 0.99 2.5 2 2.62 2.1 4.43 4.37 6.5 7l3 2v2c0.599 0.26 1.2 0.521 1.82 0.789 2.33 1.29 3.48 2.51 5.12 4.59 1.77 2.16 3.3 3.81 5.5 5.56 2.34 1.88 4.06 3.73 6 6 2.12 2.49 4.19 4.71 6.75 6.75 2.72 2.23 4.66 4.55 6.81 7.31 0.66 0.33 1.32 0.66 2 1v2c1.32 0.66 2.64 1.32 4 2v2h2c1.62 1.68 1.62 1.68 3.44 3.88 2.15 2.59 3.73 4.24 6.56 6.12v2h2v2h2v2h2v2c0.897 0.402 0.897 0.402 1.81 0.812 2.19 1.19 3.6 2.28 5.19 4.19v2h2c1.52 1.57 1.52 1.57 3.25 3.69 2.25 2.67 4.45 5.02 7.19 7.19 0.846 0.701 1.69 1.4 2.56 2.12v2h2c3.69 3.43 7.01 7.19 10.4 10.9 3.11 3.44 6.23 6.73 9.81 9.69 0.928 0.784 1.86 1.57 2.81 2.38v2h2c4.27 3.97 8.1 8.37 12 12.7 2.01 2.22 3.95 4.23 6.36 6.03 0.548 0.415 1.1 0.83 1.66 1.26v2c0.959 0.402 0.959 0.402 1.94 0.812 2.06 1.19 2.06 1.19 3.06 4.19h2v2h2v2c0.99 0.33 1.98 0.66 3 1 1.69 1.44 1.69 1.44 3 3v2h2c1.2 1.44 2.4 2.88 3.57 4.35 2.21 2.57 4.79 4.52 7.43 6.65 2.37 2.19 2.37 2.19 4 4v2c0.568 0.229 1.14 0.459 1.72 0.695 2.87 1.64 4.57 3.67 6.71 6.18 2.97 3.47 5.97 6.31 9.56 9.12 1.33 1.67 2.67 3.33 4 5 0.825 0.66 1.65 1.32 2.5 2 2.63 2.1 4.4 4.38 6.5 7 0.825 0.66 1.65 1.32 2.5 2 2.62 2.1 4.43 4.37 6.5 7l3 2v2c0.599 0.26 1.2 0.521 1.82 0.789 2.33 1.29 3.48 2.51 5.12 4.59 2.45 2.98 5.04 5.22 8.06 7.62 0.917 1.04 1.81 2.11 2.69 3.19 2.01 2.83 2.01 2.83 4.31 3.81v2c0.99 0.33 1.98 0.66 3 1 1.34 1.66 2.68 3.33 4 5l2.75 2.19c0.743 0.598 1.48 1.2 2.25 1.81v2c1.32 0.66 2.64 1.32 4 2v2h2c1.69 1.98 3.35 3.98 5 6l2 1v2c0.99 0.33 1.98 0.66 3 1v2h2v2h2v2h2v2c0.598 0.268 1.2 0.536 1.81 0.812 2.19 1.19 3.6 2.28 5.19 4.19v2h2c3.13 2.81 5.14 5.28 7 9 0.99 0.33 1.98 0.66 3 1 1.69 1.44 1.69 1.44 3 3v2h2c3.13 2.81 5.14 5.28 7 9 0.99 0.33 1.98 0.66 3 1 3.13 2.82 5.14 5.27 7 9 0.99 0.33 1.98 0.66 3 1v2h2v2c0.99 0.33 1.98 0.66 3 1 1.71 1.62 3.37 3.29 5 5l1.81 1.69c1.19 1.31 1.19 1.31 1.19 3.31h2v2h2c1.33 1.39 1.33 1.39 2.81 3.25 1.81 2.19 3.39 3.91 5.62 5.69 3.03 2.44 5.36 5.23 7.88 8.19 1.71 2.01 1.71 2.01 4.19 3.81 3.79 3.13 6.77 6.98 9.5 11.1v2c0.99 0.33 1.98 0.66 3 1 0.464 1.21 0.464 1.21 0.938 2.44 0.767 2.67 0.767 2.67 2.85 3.38 6.65 3.57 11.6 13.4 15 19.9 1.24 2.24 2.6 4.28 4.07 6.37 3.37 5.01 6 10.3 8.57 15.7 0.45 0.927 0.9 1.85 1.36 2.81 0.636 1.34 0.636 1.34 1.29 2.71 0.381 0.802 0.762 1.6 1.15 2.43 0.823 2.24 0.823 2.24 0.823 6.24 1.32 0.33 2.64 0.66 4 1v79h-3c-2.01 3.79-3.55 7.76-5.12 11.8-0.416 1.05-0.416 1.05-0.84 2.11-0.68 1.71-1.36 3.42-2.04 5.14h-2l-0.445 1.69c-1.56 5.32-3.59 9.15-7.15 13.4-1.52 1.89-1.52 1.89-2.28 4.32-1.44 3.35-3.48 5.42-6 8.04-2.59 2.72-4.92 5.25-6.96 8.41-2.88 4.2-6.31 7.63-9.91 11.2-0.678 0.694-1.36 1.39-2.05 2.1-4.3 4.31-8.69 8.13-14.2 10.8h-2c-0.33 0.99-0.66 1.98-1 3-2 0.949-2 0.949-4.44 1.69-0.803 0.251-1.61 0.503-2.43 0.762-2.13 0.551-2.13 0.551-4.13 0.551l-0.738 1.87c-3.12 5.27-11.7 6.69-17.3 8.13-4.72 1.34-4.72 1.34-9.42 2.76-4.88 1.52-9.5 2.57-14.6 3.24-1.03 0.327-2.06 0.655-3.12 0.992-4.38 1.29-8.71 1.42-13.3 1.57-5.22-0.281-5.22-0.281-9.62 1.44-1.75 0.192-3.52 0.324-5.28 0.43-1.61 0.11-1.61 0.11-3.24 0.223-2.27 0.148-4.55 0.289-6.82 0.422-1.07 0.0761-2.14 0.152-3.25 0.23-0.989 0.0617-1.98 0.123-3 0.187-2.77 0.29-2.77 0.29-4.41 3.51-0.189 2.55-0.261 4.98-0.241 7.53-0.00171 0.777-0.00342 1.55-0.00518 2.36-0.00331 2.63 0.00775 5.25 0.0186 7.88 5.6e-4 1.89 2.35e-4 3.79-9.02e-4 5.68-5.93e-4 5.22 0.0113 10.4 0.0251 15.7 0.0127 5.62 0.0139 11.2 0.0164 16.9 0.00578 9.75 0.0187 19.5 0.0361 29.3 0.0251 14.1 0.0373 28.2 0.0459 42.3 0.0141 22.9 0.0357 45.8 0.0634 68.7 8.27e-4 0.686 0.00165 1.37 0.00251 2.08 0.0134 11.1 0.0272 22.2 0.0411 33.4 0.013 10.4 0.0258 20.8 0.0384 31.2 8.29e-4 0.684 0.00166 1.37 0.00251 2.07 0.0284 23.5 0.049 47 0.0633 70.5 0.00897 14.1 0.0251 28.1 0.0503 42.2 0.0168 9.64 0.0266 19.3 0.0309 28.9 0.00269 5.57 0.00872 11.1 0.0235 16.7 0.0135 5.1 0.0178 10.2 0.0147 15.3 5.43e-4 1.84 0.00449 3.69 0.0122 5.53 0.00999 2.51 0.00755 5.02 0.0021 7.52 0.00583 0.713 0.0117 1.43 0.0177 2.16-0.0266 4.53-0.687 8.63-1.8 13-0.779 3.57-0.775 7.14-0.801 10.8-0.0146 0.782-0.0292 1.56-0.0443 2.37-0.0617 3.3-0.102 6.61-0.144 9.91-0.0336 2.43-0.0787 4.86-0.125 7.28-0.00792 1.12-0.00792 1.12-0.016 2.27-0.102 5.26-0.102 5.26-2.33 7.48-0.251 2.33-0.404 4.66-0.5 7-0.278 6.78-0.278 6.78-2.5 9-0.384 1.91-0.384 1.91-0.5 4-0.278 3.78-0.278 3.78-2.5 6-1.05 3.15-1.92 6.34-2.8 9.54-1.08 3.13-2.42 5.79-4.12 8.62-1.13 1.92-2.15 3.87-3.16 5.85-6.98 13.6-15.3 24.9-25.9 36-0.593 0.62-1.19 1.24-1.8 1.88-18.7 19.5-18.7 19.5-27.2 21.1v2c-1.32 0.33-2.64 0.66-4 1v2c-1.73 0.962-3.46 1.92-5.19 2.88l-2.92 1.62c-2.89 1.51-2.89 1.51-5.32 2.45-2.76 1.06-2.76 1.06-5.87 2.99-3.84 2.24-7.81 3.66-12 5.06-4.82 1.64-9.57 3.31-14.2 5.31-3.02 1.26-5.68 1.97-8.94 2.31-3.55 0.0104-3.55 0.0104-5.5 2.38-2.6 0.414-2.6 0.414-5.62 0.625-1 0.0748-2.01 0.15-3.04 0.227-0.771 0.049-1.54 0.098-2.34 0.148-0.33 0.99-0.66 1.98-1 3h-294c-0.99-2.64-1.98-5.28-3-8-3.85-5.46-8.61-9.87-15-12-5.53-6.05-7.43-11.8-8.12-19.8-0.308-5.29-0.308-5.29-1.88-10.2-0.0992-2.03-0.132-4.07-0.136-6.11-0.00486-1.31-0.00972-2.62-0.0147-3.98-3.85e-4 -1.47-6.81e-4 -2.94-8.97e-4 -4.41-0.00385-1.55-0.00813-3.1-0.0128-4.65-0.0117-4.28-0.0171-8.56-0.0216-12.8-0.00594-4.61-0.0176-9.22-0.0286-13.8-0.0184-7.99-0.0332-16-0.0458-24-0.0183-11.6-0.0429-23.1-0.0694-34.7-0.0428-18.8-0.0819-37.6-0.118-56.4-0.00216-1.13-0.00433-2.25-0.00655-3.41-0.0153-7.99-0.0305-16-0.0457-24-0.0173-9.1-0.0347-18.2-0.0522-27.3-0.00216-1.12-0.00432-2.24-0.00654-3.4-0.0362-18.7-0.0761-37.4-0.119-56.1-0.0261-11.5-0.0488-23.1-0.067-34.6-0.0127-7.91-0.0288-15.8-0.0476-23.7-0.0107-4.56-0.0199-9.13-0.0247-13.7-0.00447-4.19-0.0135-8.37-0.0259-12.6-0.0037-1.51-0.00579-3.01-0.00602-4.52 0.162-18.8 0.162-18.8-4.1-37-1.33-3.6-2.33-7.27-3.34-11-0.546-2.06-0.546-2.06-2.71-2.86-0.818-1.39-1.58-2.81-2.31-4.25-2.14-4.01-4.41-6.66-7.69-9.75v-2c-0.557-0.248-1.11-0.495-1.69-0.75-2.72-1.47-4.91-3.3-7.31-5.25l-3.12-2.06c-2.88-1.94-2.88-1.94-4.18-3.43-2.36-2.09-4.76-2.67-7.76-3.57-5.73-1.73-5.73-1.73-7.94-3.94-2.2-0.46-2.2-0.46-4.62-0.625-1.23-0.112-1.23-0.112-2.48-0.227-0.626-0.049-1.25-0.098-1.9-0.148v-2c-51-1.52-102-1.31-153-0.652-2.19 0.027-4.39 0.0507-6.58 0.0734-4.05 0.0427-8.09 0.102-12.1 0.165-1.2 0.0116-2.41 0.0231-3.65 0.035-1.09 0.0199-2.18 0.0397-3.31 0.0602-0.951 0.0133-1.9 0.0266-2.88 0.0404-2.46 0.0675-2.46 0.0675-4.26 2.28-2.66 0.565-5.29 0.738-8 1v2c-0.771 0.182-1.54 0.364-2.34 0.551-1 0.251-2.01 0.503-3.04 0.762-0.998 0.244-2 0.487-3.02 0.738-2.91 0.771-2.91 0.771-4.6 3.95-1.73 0.716-3.45 1.43-5.19 2.12-2.85 1.39-4.71 3.55-6.81 5.88-1.69 1.81-1.69 1.81-3 3h-2c-0.227 0.536-0.454 1.07-0.688 1.62-1.4 2.54-3.13 4.6-5.01 6.79-2.72 3.3-4.95 6.52-6.3 10.6h-2c-0.268 0.804-0.536 1.61-0.812 2.44-0.392 1.18-0.784 2.35-1.19 3.56-0.379 1.17-0.379 1.17-0.766 2.37-0.394 1.21-0.394 1.21-0.797 2.45-0.249 0.77-0.498 1.54-0.754 2.33-0.684 1.86-0.684 1.86-1.68 2.86-0.156 1.34-0.25 2.69-0.316 4.04-0.0628 1.21-0.0628 1.21-0.127 2.45-0.059 1.28-0.059 1.28-0.119 2.58-0.0432 0.854-0.0864 1.71-0.131 2.59-0.106 2.12-0.207 4.23-0.307 6.35h-2c-5.97e-4 0.822-0.00119 1.64-0.00181 2.49-0.0359 48.7-0.0925 97.4-0.176 146-0.01 5.85-0.0199 11.7-0.0296 17.5-0.00194 1.16-0.00388 2.33-0.00588 3.53-0.031 18.9-0.048 37.7-0.0598 56.6-0.0124 19.3-0.0399 38.7-0.0814 58-0.0251 11.9-0.0385 23.9-0.0368 35.8 2.97e-5 8.18-0.0146 16.4-0.0407 24.5-0.0147 4.72-0.0228 9.44-0.0136 14.2 0.00829 4.33-0.00186 8.65-0.0265 13-0.00569 1.56-0.00467 3.13 0.00382 4.69 0.0414 8.33-0.285 15.2-4.53 22.6-0.712 1.61-0.712 1.61-1.44 3.25-1.79 3.15-3.94 5.26-6.56 7.75-0.474 0.701-0.949 1.4-1.44 2.12-1.56 1.87-1.56 1.87-4.43 3.14-3.65 2.02-4.68 3.77-6.74 7.34-3.54 5.07-3.54 5.07-7.05 6.41-3.22 0.37-6.29 0.399-9.53 0.307-1.82 0.0141-1.82 0.0141-3.68 0.0285-3.36 0.0149-6.71-0.0192-10.1-0.0746-3.63-0.0476-7.25-0.0314-10.9-0.0231-6.28 0.00576-12.6-0.0287-18.8-0.0906-9.08-0.0895-18.2-0.118-27.2-0.132-14.7-0.0241-29.5-0.0972-44.2-0.201-14.3-0.101-28.6-0.179-42.9-0.226-0.882-0.00289-1.76-0.00578-2.67-0.00876-4.43-0.0144-8.85-0.0283-13.3-0.0419-36.7-0.114-73.4-0.308-110-0.554l-1-4c-0.949 0.0412-1.9 0.0825-2.88 0.125-3.12-0.125-3.12-0.125-5.12-2.12-2.07-0.442-4.15-0.88-6.23-1.3-4.37-1.1-8.48-2.81-12.7-4.48-2.07-0.81-4.16-1.56-6.27-2.26-2.36-0.799-4.4-1.67-6.59-2.84-2.87-1.48-5.72-2.7-8.75-3.81-7.57-2.93-14.5-7.25-21.5-11.3v-2c-0.721-0.25-1.44-0.5-2.18-0.758-3.07-1.36-5.28-2.99-7.88-5.12-0.837-0.678-1.67-1.36-2.54-2.05-2.25-1.94-4.4-3.86-6.4-6.07v-2c-1.42-0.371-1.42-0.371-2.88-0.75-3.12-1.25-3.12-1.25-4.5-3.38l-0.625-1.88h-2c-0.227-0.742-0.454-1.48-0.688-2.25-1.58-3.3-3.45-4.5-6.31-6.75-1.35-1.99-2.69-3.99-4-6l-3-2c-0.699-1.32-1.37-2.65-2-4-0.66-0.66-1.32-1.32-2-2v-3c-0.99-0.33-1.98-0.66-3-1-1.65-2.6-2-3.86-2-7h-2c-0.315-0.701-0.629-1.4-0.953-2.12-0.428-0.949-0.856-1.9-1.3-2.88-0.688-1.53-0.688-1.53-1.39-3.09-1.05-2.25-2.16-4.38-3.36-6.54-2.5-4.85-3.8-10.1-5.25-15.4-1.16-4.19-1.16-4.19-2.86-8.18-1.16-2.36-1.31-4.45-1.52-7.06-0.0748-0.892-0.15-1.78-0.227-2.7-0.049-0.675-0.098-1.35-0.148-2.05h-2v-20h-2c-1.57-3.13-1.14-6.47-1.14-9.91-0.00284-0.831-0.00568-1.66-0.00861-2.52-0.00839-2.82-0.00962-5.63-0.0109-8.45-0.00456-2.03-0.00956-4.05-0.015-6.08-0.0136-5.59-0.021-11.2-0.0274-16.8-0.00798-6.02-0.0217-12-0.0347-18.1-0.0218-10.4-0.04-20.9-0.0556-31.3-0.0164-11-0.0349-21.9-0.0561-32.9-0.00132-0.681-0.00264-1.36-0.00399-2.06-0.0067-3.46-0.0134-6.91-0.0202-10.4-0.0478-24.5-0.091-49-0.131-73.5-0.0393-23.8-0.0807-47.6-0.125-71.4-0.00136-0.733-0.00273-1.47-0.00413-2.22-0.0137-7.36-0.0274-14.7-0.0412-22.1-0.028-15-0.0558-30-0.0833-45-0.00127-0.69-0.00254-1.38-0.00384-2.09-0.0847-46.1-0.163-92.2-0.24-138-2.73-0.17-5.46-0.338-8.19-0.504-0.769-0.0482-1.54-0.0964-2.33-0.146-3.84-0.232-7.63-0.406-11.5-0.287-3.66 0.0556-6.8-0.666-10.3-1.56-4.69-0.886-9.45-0.964-14.2-1.16-3.29-0.327-5.45-1.06-8.45-2.34-1.91-0.36-3.83-0.67-5.75-0.938-5.36-0.83-10.2-2.2-15.2-4.06v-2c-0.908-0.0412-1.82-0.0825-2.75-0.125-5.91-0.792-11.1-4.1-16.2-6.88v-2l-3.38-0.75c-3.62-1.25-3.62-1.25-4.75-3.25-0.289-0.66-0.578-1.32-0.875-2-0.701-0.268-1.4-0.536-2.12-0.812-4.39-1.81-7.4-5.01-10.9-8.19l-2.52-2.17-2.48-2.14c-1.14-0.984-1.14-0.984-2.31-1.99-1.69-1.7-1.69-1.7-1.69-3.7l-1.94-0.812c-2.06-1.19-2.06-1.19-3.06-4.19-0.99-0.33-1.98-0.66-3-1v-2c-0.99-0.33-1.98-0.66-3-1-1.41-1.95-2.73-3.96-4-6-2.38-4.16-2.38-4.16-6-7v-2h-2l-1.61-3.66c-0.713-1.61-1.43-3.23-2.14-4.84l-1.05-2.4c-1.65-3.74-3.34-7.43-5.23-11.1-2.34-4.63-3.97-9.44-5.59-14.4-0.306-0.923-0.613-1.85-0.928-2.8-1.83-5.62-3.35-11.2-4.16-17-0.206-1.95-0.206-1.95-1.29-3.86-0.212-4.55-0.186-9.1-0.185-13.7-0.00219-2.27-0.0203-4.53-0.0393-6.8-0.00293-1.44-0.00492-2.88-0.00586-4.32-0.00411-1.31-0.00822-2.62-0.0125-3.98 0.243-3.25 0.243-3.25 2.24-6.25 0.338-3 0.441-5.98 0.559-8.99 0.499-3.4 1.66-5.09 3.44-8.01 1.04-2.9 1.86-5.85 2.69-8.81l0.682-2.39c0.55-1.93 1.09-3.86 1.63-5.8h2l-0.125-2.38c0.125-2.62 0.125-2.62 2.12-4.62 0.673-1.52 1.29-3.07 1.88-4.62 1.81-4.63 3.68-9.04 6.12-13.4 0.99-0.33 1.98-0.66 3-1 0.704-1.31 1.36-2.65 2-4 1.51-2.1 3.04-4.15 4.62-6.19 0.662-0.859 0.662-0.859 1.34-1.74 3.28-4.22 6.75-8.21 10.4-12.1 1.73-1.96 1.73-1.96 2.58-4.57 1.17-2.81 2.18-3.6 4.7-5.24 3.81-2.48 6.45-5.56 9.38-8.98 3.26-3.72 6.75-7.21 10.2-10.7 1.07-1.09 1.07-1.09 2.17-2.2l2.07-2.08c0.923-0.929 0.923-0.929 1.86-1.88 1.58-1.34 1.58-1.34 3.58-1.34l0.625-1.61c1.95-3.4 4.6-5.9 7.38-8.64 0.82-0.831 0.82-0.831 1.66-1.68 4.09-4.07 4.09-4.07 6.34-4.07 0.264-0.603 0.529-1.21 0.801-1.83 1.26-2.28 2.35-3.34 4.39-4.92 2.56-2.09 4.75-4.23 6.88-6.77 4.23-4.9 8.75-9.49 13.3-14.1 1.44-1.44 2.88-2.9 4.31-4.35l2.76-2.76c0.825-0.829 1.65-1.66 2.5-2.51 2.04-1.8 2.04-1.8 4.04-1.8 0.257-0.583 0.515-1.17 0.78-1.77 1.33-2.42 2.77-4.01 4.74-5.95l2.1-2.08c0.724-0.707 1.45-1.41 2.19-2.14l2.16-2.13c1.39-1.37 2.78-2.74 4.18-4.11 3.55-3.49 7.06-7.03 10.5-10.6 1.33-1.35 2.66-2.7 3.99-4.04 0.676-0.693 1.35-1.39 2.05-2.1 0.648-0.654 1.3-1.31 1.96-1.98 0.879-0.895 0.879-0.895 1.78-1.81 1.52-1.3 1.52-1.3 3.52-1.3 0.402-0.959 0.402-0.959 0.812-1.94 1.19-2.06 1.19-2.06 4.19-3.06 0.678-1.33 1.34-2.66 2-4 1.49-1.65 3.03-3.25 4.61-4.81l2.78-2.76c0.972-0.955 1.94-1.91 2.92-2.87 0.961-0.951 1.92-1.9 2.88-2.85 1.78-1.76 3.56-3.52 5.34-5.28 1.73-1.71 3.45-3.42 5.17-5.15 1.83-1.83 3.66-3.48 5.67-5.1 2.62-2.2 4.85-4.52 7.06-7.12 2.94-3.46 6.11-6.34 9.57-9.26 2.76-2.51 5.09-5.31 7.45-8.2 1.54-1.6 1.54-1.6 4.54-2.6 0.282-0.568 0.565-1.14 0.855-1.72 1.58-3.14 3.96-5.31 6.46-7.71l1.44-1.41c1.41-1.39 2.83-2.77 4.25-4.15 0.873-0.882 1.75-1.76 2.64-2.67 1.86-1.83 3.7-3.5 5.73-5.14 3.33-2.81 6.1-5.91 8.92-9.22 2.44-2.82 4.97-5.43 7.7-7.97h2c0.309-0.797 0.309-0.797 0.625-1.61 1.95-3.4 4.6-5.9 7.38-8.64 0.547-0.554 1.09-1.11 1.66-1.68 4.09-4.07 4.09-4.07 6.34-4.07 0.264-0.603 0.529-1.21 0.801-1.83 1.26-2.28 2.35-3.34 4.39-4.92 2.56-2.09 4.75-4.23 6.88-6.77 4.23-4.9 8.75-9.49 13.3-14.1 1.44-1.44 2.88-2.9 4.31-4.35l2.76-2.76c0.825-0.829 1.65-1.66 2.5-2.51 2.04-1.8 2.04-1.8 4.04-1.8 0.257-0.583 0.515-1.17 0.78-1.77 1.33-2.42 2.77-4.01 4.74-5.95l2.1-2.08 2.19-2.14 2.16-2.13c1.39-1.37 2.78-2.74 4.18-4.11 3.55-3.49 7.06-7.03 10.5-10.6 1.33-1.35 2.66-2.7 3.99-4.04 0.676-0.693 1.35-1.39 2.05-2.1 0.648-0.654 1.3-1.31 1.96-1.98 0.586-0.597 1.17-1.19 1.78-1.81 1.52-1.3 1.52-1.3 3.52-1.3 0.268-0.639 0.536-1.28 0.812-1.94 1.19-2.06 1.19-2.06 4.19-3.06 0.678-1.33 1.34-2.66 2-4 1.49-1.65 3.03-3.25 4.61-4.81l2.78-2.76c0.972-0.955 1.94-1.91 2.92-2.87 0.961-0.951 1.92-1.9 2.88-2.85 1.78-1.76 3.56-3.52 5.34-5.28 1.73-1.71 3.45-3.42 5.17-5.15 1.83-1.83 3.66-3.48 5.67-5.1 2.59-2.19 4.81-4.47 7-7.06 3.18-3.75 6.69-6.89 10.4-10.1 2.88-2.64 5.34-5.54 7.8-8.56 0.465-0.485 0.931-0.969 1.41-1.47h2l0.668-1.66c1.75-3.08 4.12-5.34 6.64-7.78l1.44-1.41c1.41-1.39 2.83-2.77 4.25-4.15l2.64-2.67c1.86-1.83 3.7-3.5 5.73-5.14 3.33-2.81 6.1-5.91 8.92-9.22 2.44-2.82 4.97-5.43 7.7-7.97h2c0.309-0.797 0.309-0.797 0.625-1.61 1.95-3.4 4.6-5.9 7.38-8.64 0.547-0.554 1.09-1.11 1.66-1.68 4.09-4.07 4.09-4.07 6.34-4.07 0.264-0.603 0.529-1.21 0.801-1.83 1.26-2.28 2.35-3.34 4.39-4.92 2.56-2.09 4.75-4.23 6.88-6.77 4.23-4.9 8.75-9.49 13.3-14.1 1.44-1.44 2.88-2.9 4.31-4.35 0.909-0.911 1.82-1.82 2.76-2.76 0.825-0.829 1.65-1.66 2.5-2.51 2.04-1.8 2.04-1.8 4.04-1.8 0.386-0.875 0.386-0.875 0.78-1.77 1.33-2.42 2.77-4.01 4.74-5.95 1.04-1.03 1.04-1.03 2.1-2.08 0.724-0.707 1.45-1.41 2.19-2.14 0.712-0.703 1.42-1.41 2.16-2.13 1.39-1.37 2.78-2.74 4.18-4.11 3.55-3.49 7.06-7.03 10.5-10.6 1.33-1.35 2.66-2.7 3.99-4.04 0.676-0.693 1.35-1.39 2.05-2.1 0.648-0.654 1.3-1.31 1.96-1.98 0.586-0.597 1.17-1.19 1.78-1.81 1.52-1.3 1.52-1.3 3.52-1.3 0.268-0.639 0.536-1.28 0.812-1.94 1.19-2.06 1.19-2.06 4.19-3.06 0.678-1.33 1.34-2.66 2-4 1.49-1.65 3.03-3.25 4.61-4.81 1.38-1.37 1.38-1.37 2.78-2.76 0.972-0.955 1.94-1.91 2.92-2.87 0.961-0.951 1.92-1.9 2.88-2.85 1.78-1.76 3.56-3.52 5.34-5.28 1.73-1.71 3.45-3.42 5.17-5.15 1.83-1.83 3.66-3.48 5.67-5.1 2.59-2.19 4.81-4.47 7-7.06 3.18-3.75 6.69-6.89 10.4-10.1 2.88-2.64 5.34-5.54 7.8-8.56 0.698-0.727 0.698-0.727 1.41-1.47h2c0.22-0.548 0.441-1.1 0.668-1.66 1.75-3.08 4.12-5.34 6.64-7.78 0.474-0.465 0.947-0.929 1.44-1.41 1.41-1.39 2.83-2.77 4.25-4.15 2.7-2.68 5.38-5.39 8.04-8.11 1.05-1.07 2.1-2.13 3.14-3.2 0.533-0.55 1.07-1.1 1.62-1.67 1.36-1.38 2.78-2.7 4.2-4.02h2c0.227-0.551 0.453-1.1 0.687-1.67 1.71-3.03 3.87-5.15 6.33-7.61 0.493-0.495 0.987-0.991 1.5-1.5 1.04-1.04 2.09-2.09 3.14-3.13 1.59-1.58 3.17-3.17 4.75-4.76 1.02-1.02 2.04-2.03 3.06-3.05 0.919-0.917 1.84-1.83 2.79-2.78 2.77-2.51 5.62-4.48 8.76-6.5 2.54-2.23 4.99-4.55 7.44-6.88 3.08-2.55 6.43-5.12 10.6-5.12 0.245-0.624 0.49-1.25 0.742-1.89 1.56-2.62 2.52-2.91 5.38-3.86 4.78-1.75 9.23-3.87 13.8-6.19 6.59-3.35 13.2-6.35 20.1-9.06 0.866-0.382 1.73-0.763 2.62-1.16 3.09-1.1 5.23-0.575 8.38 0.156v-3zm19 92c-1.48 0.328-2.96 0.639-4.44 0.938-4.12 0.885-7.74 2.26-11.6 4.06-0.99 0.412-1.98 0.825-3 1.25-3.31 1.93-5.53 4.12-8.16 6.87-1.82 1.86-3.73 3.52-5.72 5.19-3.03 2.61-5.68 5.36-8.31 8.38-4.63 5.27-9.7 9.95-14.9 14.6-3.56 3.23-3.56 3.23-6.92 6.66v2c-1.49 0.495-1.49 0.495-3 1-1.61 1.63-1.61 1.63-3.19 3.62-2.39 2.82-4.8 5.35-7.62 7.75-7.12 6.06-13.6 12.7-19.6 19.9-1.57 1.69-1.57 1.69-3.77 3.29-0.596 0.463-1.19 0.926-1.8 1.4v2c-0.561 0.235-1.12 0.469-1.7 0.711-6.25 3.5-11.2 9.93-15.8 15.4-3.49 4.11-7.47 7.56-11.6 11.1-0.641 0.621-1.28 1.24-1.94 1.88v2c-0.563 0.228-1.13 0.456-1.71 0.691-2.92 1.67-4.75 3.74-6.98 6.25-1.18 1.31-1.18 1.31-2.39 2.65-2.09 2.33-2.09 2.33-2.93 5.41-0.722 0.268-1.44 0.536-2.19 0.812-3.73 1.58-6.31 4.02-8.81 7.19v2c-0.579 0.24-1.16 0.48-1.75 0.727-2.7 1.53-4.19 3.28-6.18 5.65-4.2 4.81-8.69 9.1-13.5 13.3-3.55 3.19-6.57 6.58-9.61 10.3-4.91 5.13-10.2 9.86-15.5 14.6-0.696 0.645-1.39 1.29-2.11 1.95-0.633 0.581-1.27 1.16-1.92 1.76-1.74 1.68-1.74 1.68-2.5 4.64-0.99 0.33-1.98 0.66-3 1v2h-2c-1.46 1.49-1.46 1.49-3 3.44-2.82 3.33-5.78 6.25-9.06 9.12-3.47 3.05-6.6 6.13-9.49 9.73-4.41 5.18-9.61 9.69-14.6 14.3-1.42 1.33-2.84 2.65-4.26 3.98-0.623 0.581-1.25 1.16-1.89 1.76-0.571 0.541-1.14 1.08-1.73 1.64-0.57 0.524-1.14 1.05-1.73 1.59-1.5 1.34-1.5 1.34-1.27 3.41-0.99 0.33-1.98 0.66-3 1-1.61 1.63-1.61 1.63-3.19 3.62-2.39 2.82-4.8 5.35-7.62 7.75-7.12 6.06-13.6 12.7-19.6 19.9-1.57 1.69-1.57 1.69-3.77 3.29-0.596 0.463-1.19 0.926-1.8 1.4v2c-0.841 0.352-0.841 0.352-1.7 0.711-6.25 3.5-11.2 9.93-15.8 15.4-3.49 4.11-7.47 7.56-11.6 11.1l-1.94 1.88v2l-1.71 0.691c-2.92 1.67-4.75 3.74-6.98 6.25-1.18 1.31-1.18 1.31-2.39 2.65-2.09 2.33-2.09 2.33-2.93 5.41-1.08 0.402-1.08 0.402-2.19 0.812-3.73 1.58-6.31 4.02-8.81 7.19v2l-1.75 0.727c-2.7 1.53-4.19 3.28-6.18 5.65-4.2 4.81-8.69 9.1-13.5 13.3-3.55 3.19-6.57 6.58-9.61 10.3-4.91 5.13-10.2 9.86-15.5 14.6l-2.11 1.95-1.92 1.76c-1.74 1.68-1.74 1.68-2.5 4.64-0.99 0.33-1.98 0.66-3 1v2h-2c-1.46 1.49-1.46 1.49-3 3.44-2.82 3.33-5.78 6.25-9.06 9.12-3.47 3.05-6.6 6.13-9.49 9.73-4.41 5.18-9.61 9.69-14.6 14.3-1.42 1.33-2.84 2.65-4.26 3.98l-1.89 1.76-1.73 1.64c-0.57 0.524-1.14 1.05-1.73 1.59-1.5 1.34-1.5 1.34-1.27 3.41-0.99 0.33-1.98 0.66-3 1-1.75 1.76-1.75 1.76-3.44 3.88-1.84 2.23-3.45 4.04-5.79 5.76l-1.78 1.37v2l-1.77 0.781c-2.41 1.32-4.05 2.77-5.98 4.72-0.614 0.608-1.23 1.22-1.86 1.84-1.6 1.55-1.6 1.55-1.39 3.66-0.99 0.33-1.98 0.66-3 1-1.75 1.76-1.75 1.76-3.44 3.88-1.84 2.23-3.45 4.04-5.79 5.76l-1.78 1.37v2c-0.557 0.227-1.11 0.454-1.69 0.688-4.78 2.71-8.28 7.34-12 11.4-4.65 5.09-9.28 9.94-14.6 14.4-2.6 2.32-4.8 4.92-7.03 7.59-5.18 5.93-11.2 11.1-16.9 16.5-3.59 3.33-6.79 6.65-9.79 10.5-4.52 4.72-9.41 9.07-14.3 13.4l-1.85 1.69c-0.555 0.502-1.11 1-1.68 1.52-1.43 1.29-1.43 1.29-1.21 3.34-0.572 0.233-1.14 0.467-1.73 0.707-2.8 1.6-4.42 3.52-6.52 5.98-3.52 4.04-7.16 7.57-11.3 10.9l-1.43 1.38v2c-0.598 0.268-1.2 0.536-1.81 0.812-2.19 1.19-3.6 2.28-5.19 4.19v2h-2c-1.29 1.32-1.29 1.32-2.69 3.12-4.26 5.05-9.1 9.43-14 13.9-3.45 3.16-6.45 6.31-9.33 10-4.21 4.38-8.68 8.48-13.1 12.6-1.42 1.33-2.84 2.65-4.26 3.98l-1.89 1.76-1.73 1.64-1.73 1.59c-1.5 1.34-1.5 1.34-1.27 3.41l-1.83 0.801c-2.28 1.26-3.34 2.35-4.92 4.39-2.18 2.66-4.43 4.91-7.06 7.12-12.3 10.5-12.3 10.5-18.5 24.7l0.312 2h-2c-1.41 2.82-1.38 5.59-1.62 8.71-0.379 2.29-0.379 2.29-1.41 4.28-1.17 2.41-1.18 4.09-1.1 6.76 0.0271 1.2 0.0271 1.2 0.0547 2.42l0.0703 1.83c0.99 0.33 1.98 0.66 3 1l-0.0625 3.31c-0.123 3.63-0.123 3.63 1.06 6.69h2l-0.375 3c0.021 5.24 3.15 8.16 6.38 12l1.83 2.55c4.68 6.42 8.9 9.46 16.2 12.4l3.22 1.59c1.14 0.547 2.29 1.09 3.46 1.66 1.04 0.5 2.07 1 3.14 1.52 9.79 3.56 22.6 2.37 32.8 2.28 2.13-0.0178 4.27-0.0278 6.4-0.0359 6.05-0.0241 12.1-0.0603 18.1-0.105 3.73-0.0268 7.47-0.0438 11.2-0.0549 1.41-0.00617 2.82-0.0161 4.23-0.0301 1.97-0.0193 3.93-0.0251 5.9-0.0303 1.11-0.00746 2.23-0.0149 3.38-0.0226 3.34 0.249 6 1.08 9.13 2.23 1.75 0.279 3.5 0.529 5.25 0.75 5.35 0.899 9.17 2.93 13.7 5.91 2.14 1.49 2.14 1.49 5.09 2.34v2c4.07 3.74 4.07 3.74 9 6 1.1 2.43 1.1 2.43 2.06 5.44 1.29 4.19 1.29 4.19 3.94 7.56 1.34 5.98 1.14 12.3 1.13 18.4 0.00224 0.911 0.00449 1.82 0.0068 2.76 0.0063 3.04 0.00558 6.09 0.00488 9.13 0.00314 2.21 0.00671 4.41 0.0107 6.62 0.00968 6.06 0.0132 12.1 0.0158 18.2 0.0035 5.87 0.0117 11.7 0.0198 17.6 0.0165 12 0.0287 24 0.0387 36 0.0144 17.1 0.0372 34.3 0.0617 51.4 0.00979 6.88 0.0193 13.8 0.0288 20.6 0.00106 0.765 0.00212 1.53 0.00321 2.32 0.0251 18.2 0.0476 36.4 0.0693 54.6 9.5e-4 0.796 0.0019 1.59 0.00288 2.41 0.0222 18.6 0.043 37.1 0.0617 55.7 8.04e-4 0.799 0.00161 1.6 0.00244 2.42 0.00405 4.03 0.00809 8.06 0.0121 12.1 7.99e-4 0.796 0.0016 1.59 0.00242 2.41 0.00161 1.61 0.00322 3.21 0.00483 4.82 0.0266 26.6 0.06 53.1 0.101 79.7 0.00575 3.75 0.0114 7.5 0.017 11.2 0.0011 0.738 0.0022 1.48 0.00334 2.24 0.0175 11.9 0.0277 23.7 0.0349 35.6 0.00739 11.9 0.0218 23.9 0.0434 35.8 0.0114 6.46 0.0195 12.9 0.019 19.4-4.28e-4 5.92 0.00828 11.8 0.0242 17.8 0.00416 2.14 0.00495 4.28 0.00204 6.42-0.00347 2.91 0.00533 5.82 0.0171 8.73-0.0059 1.24-0.0059 1.24-0.0119 2.51 0.0367 5.1 0.681 9.8 1.81 14.8 0.455 2.23 0.686 4.38 0.84 6.65 0.787 7.91 3.78 15.7 7.62 22.6h2l0.125 2.69c0.98 3.71 2.24 4.79 5.26 7.03 2.59 2.07 4.5 4.74 6.61 7.29 1.64 1.36 3.31 2.7 5 4 0.866 0.959 0.866 0.959 1.75 1.94 4.56 4.18 10.4 7 16.2 9.06v2h7c0.33 0.66 0.66 1.32 1 2 1.96 0.393 1.96 0.393 4.25 0.5 2.61 0.175 4.52 0.398 6.92 1.48 3.49 1.26 6.82 1.47 10.5 1.63 0.745 0.0375 1.49 0.075 2.26 0.114 8.49 0.394 17 0.441 25.5 0.463 1.77 0.00797 3.54 0.0164 5.31 0.0251 3.77 0.0179 7.55 0.033 11.3 0.0458 5.97 0.0204 11.9 0.048 17.9 0.0767 13.7 0.0648 27.4 0.121 41.2 0.176 12.6 0.0509 25.2 0.104 37.9 0.165 5.93 0.0283 11.9 0.0519 17.8 0.0719 3.68 0.0134 7.36 0.0308 11 0.0493 1.71 0.00777 3.42 0.0138 5.12 0.0181 2.33 0.00603 4.65 0.0181 6.98 0.0316 1.3 0.00515 2.61 0.0103 3.95 0.0156 3.13 0.136 3.13 0.136 6.13 1.14 2.64 0.148 5.24 0.231 7.88 0.25 0.708 0.0206 1.42 0.0412 2.14 0.0625 4.46 0.0332 7.68-0.17 11-3.31 0.645-3.29 0.645-3.29 0.375-6.94-0.0503-1.84-0.0503-1.84-0.102-3.71-0.169-3.2-0.169-3.2-0.859-5.66-0.414-1.68-0.414-1.68 0.586-3.68 0.0983-1.77 0.132-3.54 0.136-5.32 0.00486-1.13 0.00972-2.27 0.0147-3.44 4.44e-4 -1.89 4.44e-4 -1.89 8.97e-4 -3.81 0.00385-1.34 0.00813-2.68 0.0128-4.02 0.0117-3.7 0.0171-7.39 0.0216-11.1 0.00594-3.98 0.0176-7.96 0.0286-11.9 0.0184-6.91 0.0332-13.8 0.0458-20.7 0.0183-9.99 0.0429-20 0.0694-30 0.0428-16.2 0.0819-32.4 0.118-48.7 0.00216-0.972 0.00433-1.94 0.00655-2.94 0.0153-6.9 0.0305-13.8 0.0457-20.7 0.0173-7.87 0.0347-15.7 0.0522-23.6 0.00216-0.969 0.00432-1.94 0.00654-2.94 0.0361-16.2 0.0761-32.3 0.119-48.5 0.0261-9.97 0.0488-19.9 0.067-29.9 0.0127-6.83 0.0288-13.7 0.0476-20.5 0.0107-3.94 0.0199-7.88 0.0247-11.8 0.00445-3.61 0.0134-7.22 0.0259-10.8 0.00548-1.92 0.00613-3.84 0.00659-5.76 0.0364-8.62 0.633-16.3 3.15-24.6 0.36-1.46 0.714-2.92 1.06-4.38 0.938-3.62 0.938-3.62 1.94-4.62 0.16-1.35 0.277-2.71 0.375-4.06 0.462-4.74 1.85-8.53 3.62-12.9v-2h2c0.481-1.42 0.96-2.83 1.44-4.25 0.267-0.789 0.534-1.58 0.809-2.39 0.673-2.11 1.25-4.21 1.75-6.36h2c0.33-1.98 0.66-3.96 1-6h2c0.186-0.784 0.371-1.57 0.562-2.38 1.68-4.23 3.99-7.45 6.65-11.1 1.51-2.11 2.89-4.22 4.23-6.44 8.49-13.8 18.8-27 33.1-35 0.485-0.344 0.969-0.688 1.47-1.04v-2c0.66-0.206 1.32-0.412 2-0.625 3.4-1.56 6.01-3.58 8.96-5.86 4.94-3.68 10.4-6.2 16-8.52v-2c1.65-0.33 3.3-0.66 5-1v-2c1.26-0.186 2.52-0.371 3.81-0.562 5.42-1.06 10.4-2.95 15.5-4.94 6.84-2.64 13.1-4.42 20.4-5.21 2.24-0.0487 2.24-0.0487 3.27-1.29 6.63-0.931 13.2-1.19 19.9-1.28 2.06-0.0378 4.12-0.0755 6.17-0.113 3.22-0.0539 6.43-0.106 9.65-0.158 3.12-0.0516 6.25-0.109 9.37-0.167 1.45-0.0204 1.45-0.0204 2.93-0.0411 0.892-0.0167 1.78-0.0334 2.7-0.0507 0.786-0.0125 1.57-0.0251 2.38-0.038 2.01-0.0367 2.01-0.0367 3.93-1.15 2.81-0.0985 5.6-0.136 8.41-0.129 0.87-0.00175 1.74-0.0035 2.64-0.00531 2.89-0.00441 5.77-0.00148 8.66 0.00189 2-6.73e-4 4.01-0.00164 6.01-0.0029 4.2-0.00148 8.41 6.76e-4 12.6 0.00534 5.39 0.00569 10.8 0.00243 16.2-0.00357 4.14-0.00362 8.28-0.00246 12.4 1.28e-4 1.99 6.67e-4 3.97-1.51e-4 5.96-0.00248 2.78-0.00254 5.56 0.00134 8.34 0.0069 0.82-0.00202 1.64-0.00405 2.49-0.00613 3.93 0.0145 7.47 0.266 11.3 1.14 1.48 0.102 2.96 0.164 4.45 0.189 1.27 0.0251 1.27 0.0251 2.57 0.0507 0.905 0.0136 1.81 0.0272 2.74 0.0411 0.946 0.0184 1.89 0.0368 2.87 0.0558 3.02 0.0586 6.04 0.111 9.06 0.163 3.96 0.0682 7.92 0.142 11.9 0.219 0.895 0.0136 1.79 0.0272 2.71 0.0411 13.1 0.254 25.4 2.4 38 5.99 1.36 0.386 1.36 0.386 2.75 0.78 6.68 1.95 12.9 4.37 19.2 7.37 2.85 1.12 4.79 1.34 7.81 1.1v2c2.26 2.06 4.22 3.72 7.12 4.76 4.28 1.84 7.97 4.45 11.8 7.05 0.786 0.521 1.57 1.04 2.38 1.58 6.44 4.32 11.8 8.52 16.7 14.6h2c0.33 0.66 0.66 1.32 1 2l1.62 1.62c7.4 7.4 14.6 15.7 20.4 24.4h2c0.227 0.846 0.454 1.69 0.688 2.56 1.25 3.27 2.82 5.57 4.89 8.35 5.34 7.83 8.43 16.6 11.3 25.6 0.955 2.92 2.01 5.7 3.21 8.52 5.38 13.3 6.55 25.6 6.62 39.8 0.0291 2.59 0.0636 5.18 0.102 7.77 0.0224 1.59 0.0383 3.19 0.0468 4.78-0.0441 3.95-0.0441 3.95 1.16 7.64h2c-3.8e-4 0.679-7.59e-4 1.36-0.00115 2.06-0.0224 40.2-0.0395 80.4-0.0499 121-0.00125 4.82-0.00255 9.64-0.00387 14.5-2.62e-4 0.96-5.25e-4 1.92-7.95e-4 2.91-0.00436 15.6-0.0122 31.1-0.0214 46.7-0.00934 16-0.0149 31.9-0.0169 47.9-0.00138 9.85-0.00573 19.7-0.0138 29.6-0.00527 6.75-0.00689 13.5-0.00558 20.2 6.44e-4 3.9-3.76e-4 7.8-0.0057 11.7-0.00572 4.22-0.0038 8.43-0.00105 12.7-0.00291 1.25-0.00583 2.49-0.00883 3.78 0.00199 1.12 0.00398 2.24 0.00603 3.39-3.8e-4 0.975-7.59e-4 1.95-0.00115 2.95-0.12 2.16-0.12 2.16 1.12 3.18 2.64 0.1 5.26 0.134 7.91 0.127 0.839 0.00156 1.68 0.00312 2.54 0.00473 2.83 0.00401 5.67 8.19e-4 8.5-0.00232 2.02 0.00135 4.05 0.00313 6.07 0.00531 5.52 0.00458 11 0.00278 16.6-3.79e-4 5.78-0.00253 11.6-1.85e-4 17.3 0.00139 9.72 0.00182 19.4-5.86e-4 29.2-0.00534 11.2-0.00542 22.4-0.0037 33.6 0.00183 9.63 0.00455 19.3 0.00517 28.9 0.00256 5.75-0.00155 11.5-0.00178 17.2 0.00154 5.42 0.00291 10.8 8.42e-4 16.3-0.00489 1.98-0.00131 3.96-9.63e-4 5.94 0.00126 19.6 1.27 19.6 1.27 38-3.13 2.36-0.414 2.36-0.414 4.75-0.625 0.799-0.0748 1.6-0.15 2.42-0.227l1.83-0.148v-2c0.87-0.255 0.87-0.255 1.76-0.516 5.02-1.56 9.11-3.2 13.2-6.48v-2c0.928-0.289 1.86-0.578 2.81-0.875 3.29-1.01 3.29-1.01 6.19-3.12v-2l1.81-0.797c5.46-3 8.86-9.1 12.2-14.2 0.66-0.66 1.32-1.32 2-2 5.93-13.5 10.2-26.6 10.1-41.3 0.00224-0.926 0.00449-1.85 0.0068-2.81 0.00632-3.11 0.00558-6.21 0.00488-9.32 0.00313-2.25 0.00671-4.5 0.0107-6.74 0.0097-6.18 0.0132-12.4 0.0158-18.5 0.00349-5.98 0.0117-12 0.0198-17.9 0.0165-12.2 0.0287-24.5 0.0387-36.7 0.0144-17.5 0.0372-34.9 0.0617-52.4 0.00979-7.01 0.0193-14 0.0288-21 0.00106-0.779 0.00212-1.56 0.00321-2.36 0.0251-18.5 0.0476-37.1 0.0693-55.6 9.5e-4 -0.811 0.0019-1.62 0.00288-2.46 0.0222-18.9 0.043-37.9 0.0617-56.8 8.04e-4 -0.815 0.00161-1.63 0.00244-2.47 0.00405-4.11 0.00809-8.22 0.0121-12.3 7.99e-4 -0.812 0.0016-1.62 0.00242-2.46 0.00161-1.64 0.00322-3.28 0.00483-4.92 0.0266-27.1 0.06-54.1 0.101-81.2 0.00575-3.82 0.0114-7.63 0.017-11.5 0.00165-1.13 0.00165-1.13 0.00334-2.28 0.0175-12.1 0.0277-24.2 0.0349-36.3 0.00738-12.2 0.0218-24.3 0.0434-36.5 0.0115-6.59 0.0195-13.2 0.019-19.8-4.25e-4 -6.02 0.0082-12 0.0242-18.1 0.00418-2.19 0.00493-4.38 0.00204-6.56-0.00344-2.96 0.00524-5.92 0.0171-8.87-0.00394-0.863-0.00787-1.73-0.0119-2.61 0.0284-3.92 0.0449-5.89 2.27-9.23 0.454-2.28 0.454-2.28 0.625-4.69 0.112-1.21 0.112-1.21 0.227-2.45 0.049-0.615 0.098-1.23 0.148-1.86 0.784-0.206 1.57-0.412 2.38-0.625l2.62-1.38c0.248-0.866 0.495-1.73 0.75-2.62 3.39-9.16 15-15.1 23.2-19.4 6.15-2.53 11.7-3.44 18.3-3.43 0.879-0.0102 1.76-0.0204 2.66-0.0309 2.87-0.0299 5.75-0.0394 8.62-0.0485 2-0.0169 4.01-0.035 6.01-0.0544 5.25-0.0473 10.5-0.0773 15.8-0.103 5.37-0.0299 10.7-0.0764 16.1-0.121 10.5-0.0858 21-0.153 31.6-0.209v-2l3.38-0.125c5.73-0.728 9.94-3.66 14.6-6.88 0.859-0.587 1.72-1.17 2.6-1.78 4.69-3.12 4.69-3.12 7.14-7.94 0.0838-0.754 0.168-1.51 0.254-2.29 0.99-0.33 1.98-0.66 3-1 7.79-13.8 11.8-28.3 7.63-44.1-1.95-5.91-4.82-11.4-7.63-16.9h-2c-0.371-0.773-0.371-0.773-0.75-1.56-3.35-6.78-3.35-6.78-8.25-12.4-4-4-4-4-5.62-5.75-1.31-1.47-1.31-1.47-3.38-1.25-0.227-0.557-0.454-1.11-0.688-1.69-1.68-2.96-3.87-4.93-6.31-7.31-0.988-1.16-1.97-2.33-2.94-3.5-2.76-3.27-5.73-5.81-9.06-8.5-3.44-3.26-6.53-6.72-9.57-10.4-1.42-1.64-2.81-3.2-4.43-4.65h-2c-0.33-0.99-0.66-1.98-1-3h-2v-2c-1.58-1.6-1.58-1.6-3.62-3.25-2.72-2.3-5.29-4.62-7.75-7.19-2.25-2.8-2.25-2.8-4.62-2.56v-2h-2c-0.66-1.65-1.32-3.3-2-5h-2v-2h-2c-0.33-0.99-0.66-1.98-1-3-1.49-1.51-1.49-1.51-3.38-3-3.68-3.12-7.15-6.4-10.6-9.81l-1.47-1.46c-3.47-3.48-3.47-3.48-4.59-5.73h-2v-2h-2c-0.33-0.99-0.66-1.98-1-3-1.59-1.61-1.59-1.61-3.56-3.19-5.02-4.26-10.2-8.68-14-14.1-0.46-0.581-0.92-1.16-1.39-1.76h-2c-0.33-0.99-0.66-1.98-1-3h-2v-2h-2v-2h-2c-0.33-0.99-0.66-1.98-1-3h-2c-0.33-0.99-0.66-1.98-1-3-2.64-2.41-2.64-2.41-6-3-0.227-0.536-0.454-1.07-0.688-1.62-1.77-3.2-3.85-5.67-6.31-8.38h-2v-2h-2c-0.33-0.99-0.66-1.98-1-3-1.88-2.21-1.88-2.21-4-4h-2c-0.33-0.99-0.66-1.98-1-3-1.73-1.71-1.73-1.71-3.81-3.38-3.15-2.65-5.64-5.39-8.19-8.62h-2c-0.268-0.639-0.536-1.28-0.812-1.94-1.07-2.39-1.07-2.39-4.19-3.06v-2h-2c-0.33-0.99-0.66-1.98-1-3h-2c-0.33-0.99-0.66-1.98-1-3-0.928-0.598-1.86-1.2-2.81-1.81-3.48-2.39-4.99-4.63-7.19-8.19-1.5-1.84-1.5-1.84-3-3h-2c-0.66-1.32-1.32-2.64-2-4h-2c-0.233-0.572-0.467-1.14-0.707-1.73-1.6-2.8-3.52-4.42-5.98-6.52-4.04-3.52-7.57-7.16-10.9-11.3-0.454-0.473-0.908-0.946-1.38-1.43h-2c-0.33-0.99-0.66-1.98-1-3-1.88-2.21-1.88-2.21-4-4h-2v-2c-1.55-1.57-1.55-1.57-3.56-3.19-10.5-8.93-10.5-8.93-12.4-12.8h-2c-0.33-0.99-0.66-1.98-1-3h-2c-0.206-0.541-0.412-1.08-0.625-1.64-1.91-3.28-4.58-5.6-7.38-8.11-0.547-0.507-1.09-1.01-1.66-1.54-2.74-2.81-2.74-2.81-6.34-3.71v-2h-2c-0.66-1.65-1.32-3.3-2-5h-2c-0.256-0.585-0.512-1.17-0.776-1.77-1.34-2.44-2.79-3.96-4.81-5.86-1.05-0.989-1.05-0.989-2.13-2-0.733-0.677-1.47-1.35-2.22-2.05-1.09-1.03-1.09-1.03-2.21-2.09-3.97-3.84-3.97-3.84-8.85-6.22-1.19-2.56-1.19-2.56-2-5h-2c-0.268-0.598-0.536-1.2-0.812-1.81-1.19-2.19-2.28-3.6-4.19-5.19h-2v-2c-1.58-1.64-1.58-1.64-3.62-3.31-0.726-0.62-1.45-1.24-2.2-1.88-1.33-1.1-2.66-2.2-4.01-3.27-4.08-3.26-4.08-3.26-5.17-6.54h-2c-0.268-0.639-0.536-1.28-0.812-1.94-1.07-2.39-1.07-2.39-4.19-3.06-0.68-1.33-1.34-2.66-2-4-1.86-1.96-1.86-1.96-4-3.75-0.701-0.614-1.4-1.23-2.12-1.86-1.75-1.59-1.75-1.59-3.88-1.39-0.227-0.536-0.454-1.07-0.688-1.62-1.77-3.2-3.85-5.67-6.31-8.38h-2c-0.268-0.598-0.536-1.2-0.812-1.81-1.19-2.19-2.28-3.6-4.19-5.19h-2c-0.228-0.567-0.456-1.13-0.691-1.72-1.66-2.89-3.72-4.61-6.25-6.78-2.52-2.17-4.77-4.11-6.75-6.78-0.648-0.851-0.648-0.851-1.31-1.72h-2c-0.268-0.639-0.536-1.28-0.812-1.94-1.07-2.39-1.07-2.39-4.19-3.06-0.26-0.558-0.521-1.12-0.789-1.69-1.82-3.47-4.67-5.67-7.59-8.25-3.22-2.85-6.23-5.57-8.91-8.94-0.565-0.7-1.13-1.4-1.71-2.12h-2c-0.66-1.32-1.32-2.64-2-4h-2c-0.231-0.567-0.461-1.13-0.699-1.72-1.63-2.87-3.63-4.61-6.11-6.78-0.852-0.753-1.7-1.51-2.58-2.28-1.75-1.49-3.53-2.94-5.35-4.36-2.25-1.85-3.2-3.18-4.26-5.86h-2c-0.33-0.99-0.66-1.98-1-3-1.88-2.21-1.88-2.21-4-4h-2v-2c-1.55-1.57-1.55-1.57-3.56-3.19-10.5-8.93-10.5-8.93-12.4-12.8h-2c-0.33-0.99-0.66-1.98-1-3h-2c-0.206-0.541-0.412-1.08-0.625-1.64-1.91-3.28-4.58-5.6-7.38-8.11-0.547-0.507-1.09-1.01-1.66-1.54-2.74-2.81-2.74-2.81-6.34-3.71v-2h-2c-0.66-1.65-1.32-3.3-2-5h-2c-0.257-0.589-0.515-1.18-0.78-1.78-1.32-2.41-2.71-3.84-4.74-5.68-0.693-0.637-1.39-1.27-2.1-1.93-0.724-0.655-1.45-1.31-2.19-1.98-8.03-7.29-8.03-7.29-11.1-11.1-1.05-1.25-1.05-1.25-2.11-2.52h-2c-0.268-0.598-0.536-1.2-0.812-1.81-1.19-2.19-2.28-3.6-4.19-5.19h-2v-2c-1.62-1.6-1.62-1.6-3.69-3.25-2.62-2.21-4.95-4.36-7.06-7.06-2.15-2.56-3.36-3.29-6.25-4.69-0.683-1.33-1.35-2.66-2-4-0.99-0.33-1.98-0.66-3-1-0.68-1.33-1.34-2.66-2-4-1.86-1.96-1.86-1.96-4-3.75-0.701-0.614-1.4-1.23-2.12-1.86-1.75-1.59-1.75-1.59-3.88-1.39-0.247-0.578-0.495-1.16-0.75-1.75-1.42-2.55-3.16-4.23-5.25-6.25-0.33-0.66-0.66-1.32-1-2h-2c-0.268-0.598-0.536-1.2-0.812-1.81-1.19-2.19-2.28-3.6-4.19-5.19h-2c-0.227-0.563-0.454-1.13-0.688-1.71-1.68-2.93-3.78-4.75-6.31-6.98-0.887-0.788-1.77-1.58-2.69-2.39-2.15-1.94-2.15-1.94-4.31-2.93-0.33-0.99-0.66-1.98-1-3h-2c-0.268-0.639-0.536-1.28-0.812-1.94-1.07-2.39-1.07-2.39-4.19-3.06v-2h-2c-0.325-0.828-0.325-0.828-0.656-1.67-1.81-3.13-4.16-5.16-6.84-7.58-0.499-0.459-0.998-0.918-1.51-1.39-2.59-2.59-2.59-2.59-5.99-3.36-0.66-1.65-1.32-3.3-2-5h-2c-0.66-1.32-1.32-2.64-2-4h-2v-2h-2c-0.33-0.99-0.66-1.98-1-3-1.62-1.65-1.62-1.65-3.62-3.25-10.4-8.85-10.4-8.85-12.4-12.8h-2c-0.33-0.99-0.66-1.98-1-3-3.88-4.26-8.29-7.99-12.6-11.8-1.58-1.43-3.11-2.92-4.59-4.46-1.64-1.95-1.64-1.95-3.82-1.72-0.257-0.59-0.513-1.18-0.777-1.79-3.55-6.42-11.8-11.9-18.2-15.2h-4v-2h-2c-0.33-0.99-0.66-1.98-1-3-2.41-0.897-4.65-1.58-7.12-2.19-0.652-0.177-1.3-0.354-1.98-0.537-6.77-1.74-12.3-1.66-18.9 0.725zm715 699 1 2zm-938 316 1 2zm381 40 1 3zm3 9 1 2zm1 12 1 4zm381 268 1 2z" fill="#FCFCFC"/>
<path transform="translate(225,1549)" d="m0 0c3 1 3 1 3 1z" fill="#000002"/>
<path transform="translate(1310,1589)" d="m0 0 2 1z" fill="#000002"/>
</svg>
